<svg style="enable-background:new 0 0 48 48;" version="1.1" viewBox="0 0 48 48" xml:space="preserve" xmlns="http://www.w3.org/2000/svg" xmlns:xlink="http://www.w3.org/1999/xlink"><g><g><g><path d="M24,8C15.2,8,8,15.2,8,24s7.2,16,16,16s16-7.2,16-16S32.8,8,24,8z M37.9,25      c-0.2,3.1-1.5,5.9-3.4,8.2l-2.1-2.1l-1.4,1.4l2.1,2.1c-2.2,1.9-5,3.2-8.2,3.4V35h-2v2.9c-3.1-0.2-5.9-1.5-8.2-3.4l2.1-2.1      l-1.4-1.4l-2.1,2.1c-1.9-2.2-3.2-5-3.4-8.2H13v-2h-2.9c0.2-3.1,1.5-5.9,3.4-8.2l2.8,2.8l1.4-1.4l-2.8-2.8c2.2-1.9,5-3.2,8.2-3.4      V14h2v-3.9c3.1,0.2,5.9,1.5,8.2,3.4l-2.1,2.1l1.4,1.4l2.1-2.1c1.9,2.2,3.2,5,3.4,8.2H35v2H37.9z" style="fill:#eeeeee;"/><path d="M46,21h-0.2C44.5,11.3,36.7,3.5,27,2.2V2c0-1.1-0.9-2-2-2h-2c-1.1,0-2,0.9-2,2v0.2      C11.3,3.5,3.5,11.3,2.2,21H2c-1.1,0-2,0.9-2,2v2c0,1.1,0.9,2,2,2h0.2c1.3,9.7,9.1,17.5,18.8,18.8V46c0,1.1,0.9,2,2,2h2      c1.1,0,2-0.9,2-2v-0.2c9.7-1.3,17.5-9.1,18.8-18.8H46c1.1,0,2-0.9,2-2v-2C48,21.9,47.1,21,46,21z M24,44C13,44,4,35,4,24      S13,4,24,4s20,9,20,20S35,44,24,44z" style="fill:#eeeeee;"/></g><polygon points="26.5,26.5 31,24 26.5,21.5 24,17 21.5,21.5 17,24 21.5,26.5 24,31    " style="fill:#516377;"/></g></g></svg>